<?xml version="1.0" encoding="iso-8859-1"?>
<!-- Generator: Adobe Illustrator 27.8.1, SVG Export Plug-In . SVG Version: 6.00 Build 0)  -->
<svg version="1.1" id="&#x30EC;&#x30A4;&#x30E4;&#x30FC;_1"
	 xmlns="http://www.w3.org/2000/svg" xmlns:xlink="http://www.w3.org/1999/xlink" x="0px" y="0px" viewBox="0 0 371.161 81.023"
	 style="enable-background:new 0 0 371.161 81.023;" xml:space="preserve">
<g>
	<g>
		<path style="fill:#DA5D9E;" d="M28.757,32.439c0-8.487,0-15.992,0-15.992c0-0.097-0.006-0.229-0.015-0.323
			c-0.01-0.141-0.021-0.342-0.021-0.598c0-1.939,0.667-6.809,7.025-8.184c0.505-0.04,4.205-0.23,7.017,2.149
			c2.093,1.766,3.284,4.668,3.54,8.632c0.077,1.212,0.761,2.307,1.81,2.919c1.049,0.616,2.345,0.665,3.439,0.142
			c0.39-0.188,9.634-4.514,13.774,1.652c0.396,0.614,1.562,2.623,1.562,5.059c0,1.654-0.552,3.508-2.244,5.262l6.405,3.791
			c4.891-6.249,3.239-13.887,0.358-18.192c-4.737-7.063-12.709-7.243-18.536-5.781c-0.959-3.825-2.769-6.912-5.476-9.163
			C41.932-0.731,35.022,0.034,34.73,0.069c-0.099,0.013-0.201,0.025-0.295,0.047C25.09,2.02,22.017,8.873,21.485,13.89L21.43,27.482
			v25.96l7.327-4.216c0-4.24,0-9.848,0-15.229h-0.006L28.757,32.439z"/>
		<path style="fill:#0097DD;" d="M65.513,38.778l0.045,0.025c-0.102-0.062-0.206-0.113-0.315-0.162
			C65.332,38.682,65.425,38.734,65.513,38.778L33.05,20.124l-0.036,8.429c9.764,5.607,28.9,16.603,28.9,16.603
			c0.082,0.049,0.199,0.105,0.283,0.149c0.128,0.063,0.311,0.149,0.528,0.276c1.685,0.965,5.574,3.977,3.597,10.167
			c-0.218,0.461-1.896,3.763-5.356,5.021c-2.573,0.927-5.686,0.512-9.248-1.237c-1.095-0.537-2.379-0.486-3.434,0.113
			c-1.057,0.608-1.745,1.698-1.837,2.915c-0.031,0.428-0.885,10.603-8.298,11.123c-0.726,0.033-3.047,0.05-5.161-1.166
			c-1.48-0.848-2.839-2.323-3.494-4.794l-6.484,3.729c2.944,7.475,10.446,9.895,15.651,9.538c8.481-0.596,12.61-7.416,14.244-13.195
			c3.798,1.078,7.378,1.036,10.672-0.181c6.663-2.47,9.443-8.854,9.559-9.122c0.038-0.093,0.078-0.185,0.109-0.285
			C76.821,47.452,69.899,40.886,65.513,38.778z"/>
		<path style="fill:#009E3B;" d="M1.673,20.676c-3.872,7.573-0.162,14.625,3.944,19.013c-2.881,2.694-4.697,5.779-5.352,9.231
			c-1.323,6.987,2.707,12.658,2.873,12.901c0.06,0.075,0.12,0.155,0.186,0.234c7.369,8.615,16.557,6.078,20.634,3.41l-0.046,0.025
			c0.103-0.055,0.206-0.113,0.3-0.188c-0.073,0.05-0.166,0.108-0.253,0.163l32.667-18.134l-7.305-4.324
			c-9.896,5.497-28.963,16.083-28.963,16.083c-0.086,0.046-0.193,0.117-0.274,0.164c-0.122,0.075-0.296,0.192-0.508,0.318
			c-1.703,0.939-6.287,2.714-10.574-2.181c-0.279-0.42-2.239-3.565-1.526-7.173c0.528-2.688,2.487-5.136,5.832-7.285
			c1.021-0.66,1.642-1.787,1.673-3.001c0.032-1.214-0.554-2.37-1.543-3.076c-0.357-0.245-8.626-6.232-5.238-12.843
			c0.342-0.644,1.524-2.639,3.659-3.819c1.38-0.77,3.163-1.179,5.358-0.673l0.029-7.433C9.663,11.145,3.986,16.167,1.673,20.676z"/>
	</g>
	<g>
		<path style="fill:#FFFFFF;" d="M133.338,34.111c2.286,1.214,4.106,2.917,5.46,5.109c1.354,2.194,2.03,4.62,2.03,7.28V71h-14V46.5
			h-0.77l-9.8,16.73c-3.08,5.18-7.258,7.77-12.53,7.77h-10.5c-3.874,0-7.175-1.365-9.905-4.095c-2.729-2.73-4.095-6.031-4.095-9.905
			V46.5c0-3.873,1.365-7.175,4.095-9.905c2.73-2.729,6.031-4.094,9.905-4.094h5.25v-3.5h-16.45c0-3.873,1.365-7.175,4.095-9.905
			c2.73-2.729,6.031-4.095,9.905-4.095h4.34c2.706-4.666,6.743-7,12.11-7v7h4.899v14h-4.899V43.14l8.26-13.229
			c2.706-4.293,6.253-6.44,10.64-6.44c2.381,0,4.736,0.678,7.07,2.03L133.338,34.111z M98.479,57.35V46.151h-5.601V57.35H98.479z"/>
		<path style="fill:#FFFFFF;" d="M156.018,10.451V55.25h12.25v14h-12.25c-3.874,0-7.175-1.365-9.904-4.095
			c-2.73-2.73-4.096-6.031-4.096-9.905V24.451c0-3.873,1.365-7.175,4.096-9.905C148.843,11.816,152.144,10.451,156.018,10.451z
			 M184.018,15.001c3.873,0,7.176,1.365,9.905,4.095c2.73,2.73,4.095,6.032,4.095,9.905V63.3h-14V29.001h-14
			c0-3.873,1.365-7.175,4.096-9.905C176.843,16.366,180.144,15.001,184.018,15.001z"/>
		<path style="fill:#FFFFFF;" d="M217.269,9.751v27.65h5.25v14h-5.25c-3.874,0-7.175-1.365-9.905-4.096
			c-2.729-2.729-4.095-6.03-4.095-9.904v-13.65c0-3.873,1.365-7.175,4.095-9.905C210.094,11.116,213.395,9.751,217.269,9.751z
			 M240.719,10.451c3.873,0,7.175,1.365,9.905,4.095c2.729,2.73,4.095,6.032,4.095,9.905V57c0,3.874-1.365,7.175-4.095,9.905
			c-2.73,2.729-6.032,4.095-9.905,4.095h-15.75V57h15.75V24.451h-14c0-3.873,1.365-7.175,4.095-9.905
			C233.544,11.816,236.845,10.451,240.719,10.451z"/>
		<path style="fill:#FFFFFF;" d="M272.359,11.711v43.75h4.2v14h-4.2c-3.874,0-7.175-1.377-9.905-4.13
			c-2.729-2.753-4.095-6.043-4.095-9.87v-29.75c0-3.873,1.365-7.175,4.095-9.905C265.184,13.076,268.485,11.711,272.359,11.711z
			 M312.468,48.741h7.141v14h-9.73c-1.307,2.707-3.196,4.853-5.67,6.439c-2.614,1.681-5.46,2.521-8.54,2.521
			c-4.34,0-8.05-1.54-11.13-4.62s-4.62-6.79-4.62-11.13s1.54-8.05,4.62-11.13s6.79-4.62,11.13-4.62c0.886,0,1.82,0.094,2.8,0.28
			v-7.98h-20.93c0-3.873,1.365-7.175,4.095-9.905c2.73-2.729,6.031-4.095,9.905-4.095h6.93v-10.5c3.221,0,6.091,0.992,8.61,2.975
			c2.521,1.984,4.176,4.492,4.97,7.525h7.49v14h-7.07V48.741z M295.668,59.451c0.98,0,1.809-0.338,2.485-1.016
			c0.676-0.676,1.015-1.505,1.015-2.484c0-0.98-0.339-1.809-1.015-2.485c-0.677-0.676-1.505-1.015-2.485-1.015
			c-0.934,0-1.75,0.339-2.45,1.015c-0.699,0.677-1.05,1.505-1.05,2.485c0,0.979,0.351,1.809,1.05,2.484
			C293.918,59.113,294.735,59.451,295.668,59.451z"/>
	</g>
	<g>
		<path style="fill:#FFFFFF;" d="M345.3,38.116c-1.619-2.311-2.76-5.1-3.479-7.589v8.909h-3.42v-8.849
			c-0.93,2.52-2.399,5.7-4.08,7.83l-2.189-3.209c2.07-2.101,4.17-4.95,5.67-8.64h-4.14v-0.63l-1.08,2.58
			c-0.57-1.261-1.08-2.881-1.47-4.53v15.449h-3.301v-8.159l0.12-6.3c-0.54,2.699-1.199,5.13-2.069,7.35l-1.71-3.96
			c1.08-1.92,2.46-5.37,3.359-8.67h-2.43v-3.72h2.729v-4.89h3.301v4.89h2.22v3.72h-2.101c0.721,1.68,1.62,3.33,2.431,4.5v-1.2h4.739
			v-3.72h-1.649c-0.301,1.32-0.63,2.58-1.051,3.63l-2.939-1.68c1.2-2.64,1.71-5.67,2.01-8.58l2.94,0.63
			c-0.061,0.721-0.181,1.5-0.301,2.34h0.99v-4.529h3.42v4.529h3.84v3.66h-3.84v3.72h4.62v3.57h-4.05
			c1.229,3.18,3.029,6.06,4.979,8.22L345.3,38.116z"/>
		<path style="fill:#FFFFFF;" d="M360.872,36.645c-2.851,0.78-7.561,1.74-11.61,2.19l-0.72-3.87c1.35-0.12,2.79-0.3,4.26-0.51v-7.05
			h-3.6v-3.75h10.8v3.75h-3.54v6.42c1.59-0.33,3.12-0.69,4.41-1.05V36.645z M371.161,33.706c-1.08,4.08-2.34,5.699-3.96,5.699
			c-2.609,0-5.64-5.369-6.539-19.048h-11.67v-3.87h11.52c-0.061-1.83-0.09-3.81-0.09-5.399h3.75c0,1.8,0.029,3.63,0.09,5.399h2.76
			c-0.6-1.29-1.32-2.58-2.01-3.6l2.88-1.74c1.02,1.561,2.43,3.78,3.119,5.43l-1.38,0.9v2.88h-5.22
			c0.48,8.489,2.19,13.829,2.88,13.829c0.45,0,0.84-1.229,1.38-4.409L371.161,33.706z"/>
		<path style="fill:#FFFFFF;" d="M344.971,53.205c-1.23-0.689-2.46-1.529-3.66-2.489v2.85h-11.159v-2.729
			c-1.11,0.869-2.341,1.649-3.63,2.31l-2.431-3.75c3.84-1.71,7.38-4.649,9.57-8.1h4.14c2.25,3.6,5.729,6.239,9.6,8.069
			L344.971,53.205z M343.441,69.345c-0.45-0.84-0.96-1.71-1.5-2.58c-4.38,0.811-10.529,1.53-15.659,1.8l-0.96-4.17
			c0.99-0.029,2.13-0.029,3.33-0.09c0.899-1.41,1.739-3.06,2.399-4.77l-5.64,0.03v-3.811h20.489v3.78h-4.53
			c1.561,1.92,3.93,5.16,5.19,7.319L343.441,69.345z M340.261,49.816c-1.771-1.53-3.36-3.24-4.53-4.92
			c-1.17,1.71-2.609,3.42-4.35,4.92H340.261z M335.461,59.535c-0.69,1.71-1.5,3.3-2.28,4.59c2.22-0.12,4.5-0.33,6.6-0.63
			c-0.63-0.9-1.229-1.74-1.77-2.4l2.55-1.56H335.461z"/>
		<path style="fill:#FFFFFF;" d="M351.931,69.435v-11.01c-0.779,0.87-1.56,1.71-2.43,2.431l-1.41-3.75
			c3.09-2.28,5.55-5.46,6.811-7.979h-5.49v-3.75h2.64v-4.29h3.54v4.29l3.18-0.03v3.27c-0.779,1.8-1.68,3.48-2.819,5.13
			c1.109,1.23,2.489,2.25,3.659,3.061l-1.5,3.84c-0.96-1.051-1.89-2.25-2.67-3.42v12.209H351.931z M357.631,68.805v-3.87h5.01
			V53.986h-3.99v-3.87h3.99v-9.029h3.72v9.029h4.02v3.87h-4.02v10.949h4.59v3.87H357.631z"/>
	</g>
</g>
</svg>
